%
M48
M72
T01C0.02362
T02C0.03150
T03C0.03200
T04C0.04000
T05C0.07480
%
T01
X114867Y52367
X119867Y27367
X74867Y102367
X42367Y112367
T02
X40221Y180516
X44945Y177367
X40221Y174217
X44945Y171067
X44945Y183666
T03
X84867Y157367
X84867Y147367
X84867Y137367
X84867Y127367
X84867Y117367
X84867Y107367
X84867Y97367
X84867Y87367
X84867Y77367
X84867Y67367
X84867Y57367
X84867Y47367
X84867Y37367
X84867Y27367
X77367Y14867
X69867Y37367
X59867Y37367
X42367Y39867
X32367Y39867
X19867Y39867
X47367Y14867
X19867Y9867
X124867Y27367
X124867Y37367
X124867Y47367
X124867Y57367
X124867Y67367
X124867Y77367
X124867Y87367
X124867Y97367
X124867Y107367
X124867Y117367
X124867Y127367
X124867Y137367
X124867Y147367
X124867Y157367
X114867Y172367
X112367Y187367
X117367Y194867
X122367Y187367
X134867Y187367
X144867Y187367
X144867Y172367
X162367Y174867
X169867Y159867
X179867Y159867
X192367Y174867
X152367Y77367
X142367Y77367
T04
X67367Y62367
X67367Y72367
X67367Y82367
X14867Y87367
X14867Y97367
X14867Y107367
X14867Y117367
X14867Y127367
X14867Y137367
X57367Y189867
X67367Y189867
X77367Y189867
X87367Y189867
X97367Y189867
X167367Y187367
X187367Y187367
X202367Y187367
X202367Y177367
X202367Y167367
X202367Y157367
X202367Y147367
X202367Y137367
X202367Y127367
X202367Y117367
X202367Y107367
X202367Y97367
X202367Y87367
X202367Y77367
X202367Y67367
X112367Y14867
X92367Y14867
X14867Y67367
X14867Y77367
T05
X24867Y162997
X24867Y191737
M30
