G75*
%MOIN*%
%OFA0B0*%
%FSLAX25Y25*%
%IPPOS*%
%LPD*%
%AMOC8*
5,1,8,0,0,1.08239X$1,22.5*
%
%ADD10C,0.00000*%
%ADD11OC8,0.06700*%
%ADD12C,0.06700*%
%ADD13OC8,0.05600*%
%ADD14C,0.05600*%
%ADD15C,0.07800*%
%ADD16C,0.05550*%
%ADD17C,0.11620*%
D10*
X0009867Y0002367D02*
X0009867Y0199217D01*
X0206717Y0199217D01*
X0206717Y0002367D01*
X0009867Y0002367D01*
D11*
X0152367Y0077367D03*
D12*
X0142367Y0077367D03*
D13*
X0077367Y0014867D03*
X0069867Y0037367D03*
X0059867Y0037367D03*
X0042367Y0039867D03*
X0032367Y0039867D03*
X0019867Y0039867D03*
X0047367Y0014867D03*
X0019867Y0009867D03*
X0169867Y0159867D03*
X0179867Y0159867D03*
X0192367Y0174867D03*
X0162367Y0174867D03*
X0144867Y0172367D03*
X0144867Y0187367D03*
X0134867Y0187367D03*
X0122367Y0187367D03*
X0117367Y0194867D03*
X0112367Y0187367D03*
X0114867Y0172367D03*
D14*
X0122267Y0157367D02*
X0127467Y0157367D01*
X0127467Y0147367D02*
X0122267Y0147367D01*
X0122267Y0137367D02*
X0127467Y0137367D01*
X0127467Y0127367D02*
X0122267Y0127367D01*
X0122267Y0117367D02*
X0127467Y0117367D01*
X0127467Y0107367D02*
X0122267Y0107367D01*
X0122267Y0097367D02*
X0127467Y0097367D01*
X0127467Y0087367D02*
X0122267Y0087367D01*
X0122267Y0077367D02*
X0127467Y0077367D01*
X0127467Y0067367D02*
X0122267Y0067367D01*
X0122267Y0057367D02*
X0127467Y0057367D01*
X0127467Y0047367D02*
X0122267Y0047367D01*
X0122267Y0037367D02*
X0127467Y0037367D01*
X0127467Y0027367D02*
X0122267Y0027367D01*
X0087467Y0027367D02*
X0082267Y0027367D01*
X0082267Y0037367D02*
X0087467Y0037367D01*
X0087467Y0047367D02*
X0082267Y0047367D01*
X0082267Y0057367D02*
X0087467Y0057367D01*
X0087467Y0067367D02*
X0082267Y0067367D01*
X0082267Y0077367D02*
X0087467Y0077367D01*
X0087467Y0087367D02*
X0082267Y0087367D01*
X0082267Y0097367D02*
X0087467Y0097367D01*
X0087467Y0107367D02*
X0082267Y0107367D01*
X0082267Y0117367D02*
X0087467Y0117367D01*
X0087467Y0127367D02*
X0082267Y0127367D01*
X0082267Y0137367D02*
X0087467Y0137367D01*
X0087467Y0147367D02*
X0082267Y0147367D01*
X0082267Y0157367D02*
X0087467Y0157367D01*
D15*
X0087367Y0189867D03*
X0097367Y0189867D03*
X0077367Y0189867D03*
X0067367Y0189867D03*
X0057367Y0189867D03*
X0014867Y0137367D03*
X0014867Y0127367D03*
X0014867Y0117367D03*
X0014867Y0107367D03*
X0014867Y0097367D03*
X0014867Y0087367D03*
X0014867Y0077367D03*
X0014867Y0067367D03*
X0067367Y0072367D03*
X0067367Y0082367D03*
X0067367Y0062367D03*
X0092367Y0014867D03*
X0112367Y0014867D03*
X0202367Y0067367D03*
X0202367Y0077367D03*
X0202367Y0087367D03*
X0202367Y0097367D03*
X0202367Y0107367D03*
X0202367Y0117367D03*
X0202367Y0127367D03*
X0202367Y0137367D03*
X0202367Y0147367D03*
X0202367Y0157367D03*
X0202367Y0167367D03*
X0202367Y0177367D03*
X0202367Y0187367D03*
X0187367Y0187367D03*
X0167367Y0187367D03*
D16*
X0044945Y0183666D03*
X0040221Y0180516D03*
X0044945Y0177367D03*
X0040221Y0174217D03*
X0044945Y0171067D03*
D17*
X0024867Y0162997D03*
X0024867Y0191737D03*
M02*
