G75*
%MOIN*%
%OFA0B0*%
%FSLAX25Y25*%
%IPPOS*%
%LPD*%
%AMOC8*
5,1,8,0,0,1.08239X$1,22.5*
%
%ADD10C,0.00000*%
%ADD11C,0.00400*%
%ADD12C,0.00600*%
%ADD13C,0.00500*%
%ADD14C,0.01000*%
%ADD15C,0.00800*%
D10*
X0009867Y0002367D02*
X0009867Y0199217D01*
X0206717Y0199217D01*
X0206717Y0002367D01*
X0009867Y0002367D01*
D11*
X0055063Y0046131D02*
X0055063Y0048433D01*
X0055830Y0049201D01*
X0057365Y0049201D01*
X0058132Y0048433D01*
X0058132Y0046131D01*
X0059667Y0046131D02*
X0055063Y0046131D01*
X0058132Y0047666D02*
X0059667Y0049201D01*
X0059667Y0050735D02*
X0059667Y0053804D01*
X0058899Y0055339D02*
X0059667Y0056106D01*
X0059667Y0057641D01*
X0058899Y0058408D01*
X0058132Y0058408D01*
X0057365Y0057641D01*
X0057365Y0056106D01*
X0056597Y0055339D01*
X0055830Y0055339D01*
X0055063Y0056106D01*
X0055063Y0057641D01*
X0055830Y0058408D01*
X0055830Y0059943D02*
X0058899Y0059943D01*
X0059667Y0060710D01*
X0059667Y0062245D01*
X0058899Y0063012D01*
X0055830Y0063012D01*
X0055063Y0062245D01*
X0055063Y0060710D01*
X0055830Y0059943D01*
X0055063Y0064547D02*
X0059667Y0067616D01*
X0055063Y0067616D01*
X0056597Y0069151D02*
X0055063Y0070686D01*
X0056597Y0072220D01*
X0059667Y0072220D01*
X0057365Y0072220D02*
X0057365Y0069151D01*
X0056597Y0069151D02*
X0059667Y0069151D01*
X0059667Y0064547D02*
X0055063Y0064547D01*
X0055063Y0073755D02*
X0055063Y0076824D01*
X0055063Y0075289D02*
X0059667Y0075289D01*
X0058899Y0078359D02*
X0055830Y0078359D01*
X0055063Y0079126D01*
X0055063Y0080661D01*
X0055830Y0081428D01*
X0058899Y0081428D01*
X0059667Y0080661D01*
X0059667Y0079126D01*
X0058899Y0078359D01*
X0058132Y0082963D02*
X0058132Y0085265D01*
X0057365Y0086032D01*
X0055830Y0086032D01*
X0055063Y0085265D01*
X0055063Y0082963D01*
X0059667Y0082963D01*
X0058132Y0084497D02*
X0059667Y0086032D01*
X0055063Y0053804D02*
X0055063Y0050735D01*
X0059667Y0050735D01*
X0057365Y0050735D02*
X0057365Y0052270D01*
X0089943Y0027171D02*
X0089943Y0022567D01*
X0092245Y0022567D01*
X0093012Y0023334D01*
X0093012Y0024101D01*
X0092245Y0024869D01*
X0089943Y0024869D01*
X0089943Y0027171D02*
X0092245Y0027171D01*
X0093012Y0026403D01*
X0093012Y0025636D01*
X0092245Y0024869D01*
X0094547Y0023334D02*
X0095314Y0022567D01*
X0096849Y0022567D01*
X0097616Y0023334D01*
X0097616Y0027171D01*
X0099151Y0027171D02*
X0102220Y0027171D01*
X0100686Y0027171D02*
X0100686Y0022567D01*
X0105289Y0022567D02*
X0105289Y0027171D01*
X0103755Y0027171D02*
X0106824Y0027171D01*
X0108359Y0026403D02*
X0108359Y0023334D01*
X0109126Y0022567D01*
X0110661Y0022567D01*
X0111428Y0023334D01*
X0111428Y0026403D01*
X0110661Y0027171D01*
X0109126Y0027171D01*
X0108359Y0026403D01*
X0112963Y0027171D02*
X0112963Y0022567D01*
X0116032Y0022567D02*
X0116032Y0027171D01*
X0112963Y0027171D02*
X0116032Y0022567D01*
X0120067Y0017171D02*
X0120067Y0013334D01*
X0120834Y0012567D01*
X0122369Y0012567D01*
X0123136Y0013334D01*
X0123136Y0017171D01*
X0125438Y0015636D02*
X0127740Y0015636D01*
X0129275Y0014869D02*
X0129275Y0013334D01*
X0130042Y0012567D01*
X0131576Y0012567D01*
X0132344Y0014101D02*
X0129275Y0014101D01*
X0129275Y0014869D02*
X0130042Y0015636D01*
X0131576Y0015636D01*
X0132344Y0014869D01*
X0132344Y0014101D01*
X0133878Y0014101D02*
X0135413Y0015636D01*
X0136180Y0015636D01*
X0133878Y0015636D02*
X0133878Y0012567D01*
X0127740Y0013334D02*
X0126973Y0014101D01*
X0125438Y0014101D01*
X0124671Y0014869D01*
X0125438Y0015636D01*
X0124671Y0012567D02*
X0126973Y0012567D01*
X0127740Y0013334D01*
X0152567Y0027567D02*
X0152567Y0032171D01*
X0152567Y0029869D02*
X0155636Y0029869D01*
X0157171Y0028334D02*
X0157938Y0029101D01*
X0160240Y0029101D01*
X0160240Y0029869D02*
X0160240Y0027567D01*
X0157938Y0027567D01*
X0157171Y0028334D01*
X0155636Y0027567D02*
X0155636Y0032171D01*
X0157938Y0030636D02*
X0159473Y0030636D01*
X0160240Y0029869D01*
X0161775Y0030636D02*
X0162542Y0030636D01*
X0162542Y0027567D01*
X0161775Y0027567D02*
X0163309Y0027567D01*
X0164844Y0027567D02*
X0166378Y0027567D01*
X0165611Y0027567D02*
X0165611Y0032171D01*
X0164844Y0032171D01*
X0162542Y0032171D02*
X0162542Y0032938D01*
X0167913Y0030636D02*
X0168680Y0030636D01*
X0168680Y0027567D01*
X0167913Y0027567D02*
X0169448Y0027567D01*
X0170982Y0028334D02*
X0171750Y0029101D01*
X0174052Y0029101D01*
X0174052Y0029869D02*
X0174052Y0027567D01*
X0171750Y0027567D01*
X0170982Y0028334D01*
X0171750Y0030636D02*
X0173284Y0030636D01*
X0174052Y0029869D01*
X0175586Y0030636D02*
X0177888Y0030636D01*
X0178656Y0029869D01*
X0178656Y0027567D01*
X0180190Y0028334D02*
X0180958Y0027567D01*
X0183259Y0027567D01*
X0183259Y0026799D02*
X0183259Y0030636D01*
X0180958Y0030636D01*
X0180190Y0029869D01*
X0180190Y0028334D01*
X0181725Y0026032D02*
X0182492Y0026032D01*
X0183259Y0026799D01*
X0184225Y0022171D02*
X0185759Y0022171D01*
X0186527Y0021403D01*
X0183458Y0018334D01*
X0184225Y0017567D01*
X0185759Y0017567D01*
X0186527Y0018334D01*
X0186527Y0021403D01*
X0188061Y0020636D02*
X0189596Y0022171D01*
X0189596Y0017567D01*
X0188061Y0017567D02*
X0191131Y0017567D01*
X0192665Y0018334D02*
X0192665Y0019869D01*
X0194967Y0019869D01*
X0195735Y0019101D01*
X0195735Y0018334D01*
X0194967Y0017567D01*
X0193433Y0017567D01*
X0192665Y0018334D01*
X0192665Y0019869D02*
X0194200Y0021403D01*
X0195735Y0022171D01*
X0194769Y0027567D02*
X0197071Y0027567D01*
X0197071Y0030636D01*
X0194002Y0030636D02*
X0194002Y0028334D01*
X0194769Y0027567D01*
X0192467Y0027567D02*
X0192467Y0032171D01*
X0192467Y0029869D02*
X0189398Y0029869D01*
X0189398Y0027567D02*
X0189398Y0032171D01*
X0184225Y0022171D02*
X0183458Y0021403D01*
X0183458Y0018334D01*
X0181923Y0017567D02*
X0178854Y0017567D01*
X0181923Y0020636D01*
X0181923Y0021403D01*
X0181156Y0022171D01*
X0179621Y0022171D01*
X0178854Y0021403D01*
X0171948Y0022171D02*
X0171948Y0017567D01*
X0172715Y0017567D02*
X0171180Y0017567D01*
X0169646Y0017567D02*
X0168111Y0017567D01*
X0168878Y0017567D02*
X0168878Y0020636D01*
X0168111Y0020636D01*
X0166576Y0020636D02*
X0165809Y0020636D01*
X0164275Y0019101D01*
X0164275Y0017567D02*
X0164275Y0020636D01*
X0162740Y0019869D02*
X0162740Y0018334D01*
X0161973Y0017567D01*
X0159671Y0017567D01*
X0159671Y0016032D02*
X0159671Y0020636D01*
X0161973Y0020636D01*
X0162740Y0019869D01*
X0158136Y0019869D02*
X0155067Y0019869D01*
X0155067Y0020636D02*
X0155067Y0017567D01*
X0158136Y0017567D02*
X0158136Y0020636D01*
X0156601Y0022171D01*
X0155067Y0020636D01*
X0168878Y0022171D02*
X0168878Y0022938D01*
X0171180Y0022171D02*
X0171948Y0022171D01*
X0175586Y0027567D02*
X0175586Y0030636D01*
X0168680Y0032171D02*
X0168680Y0032938D01*
X0094547Y0027171D02*
X0094547Y0023334D01*
X0162567Y0175067D02*
X0164869Y0175067D01*
X0165636Y0175834D01*
X0165636Y0176601D01*
X0164869Y0177369D01*
X0162567Y0177369D01*
X0162567Y0175067D02*
X0162567Y0179671D01*
X0164869Y0179671D01*
X0165636Y0178903D01*
X0165636Y0178136D01*
X0164869Y0177369D01*
X0167171Y0175834D02*
X0167938Y0175067D01*
X0169473Y0175067D01*
X0170240Y0175834D01*
X0170240Y0179671D01*
X0171775Y0179671D02*
X0174844Y0179671D01*
X0176378Y0179671D02*
X0179448Y0179671D01*
X0177913Y0179671D02*
X0177913Y0175067D01*
X0180982Y0175834D02*
X0180982Y0178903D01*
X0181750Y0179671D01*
X0183284Y0179671D01*
X0184052Y0178903D01*
X0184052Y0175834D01*
X0183284Y0175067D01*
X0181750Y0175067D01*
X0180982Y0175834D01*
X0185586Y0175067D02*
X0185586Y0179671D01*
X0188656Y0175067D01*
X0188656Y0179671D01*
X0173309Y0179671D02*
X0173309Y0175067D01*
X0167171Y0175834D02*
X0167171Y0179671D01*
X0101032Y0197567D02*
X0101032Y0202171D01*
X0101032Y0199869D02*
X0097963Y0199869D01*
X0096428Y0201403D02*
X0095661Y0202171D01*
X0094126Y0202171D01*
X0093359Y0201403D01*
X0093359Y0198334D01*
X0094126Y0197567D01*
X0095661Y0197567D01*
X0096428Y0198334D01*
X0097963Y0197567D02*
X0097963Y0202171D01*
X0091824Y0202171D02*
X0088755Y0202171D01*
X0090289Y0202171D02*
X0090289Y0197567D01*
X0087220Y0197567D02*
X0085685Y0197567D01*
X0086453Y0197567D02*
X0086453Y0202171D01*
X0087220Y0202171D02*
X0085685Y0202171D01*
X0084151Y0202171D02*
X0084151Y0197567D01*
X0082616Y0199101D01*
X0081082Y0197567D01*
X0081082Y0202171D01*
X0079547Y0201403D02*
X0078780Y0202171D01*
X0077245Y0202171D01*
X0076478Y0201403D01*
X0076478Y0200636D01*
X0077245Y0199869D01*
X0078780Y0199869D01*
X0079547Y0199101D01*
X0079547Y0198334D01*
X0078780Y0197567D01*
X0077245Y0197567D01*
X0076478Y0198334D01*
X0074943Y0196799D02*
X0071874Y0196799D01*
X0070339Y0197567D02*
X0067270Y0197567D01*
X0067270Y0202171D01*
X0070339Y0202171D01*
X0068804Y0199869D02*
X0067270Y0199869D01*
X0065735Y0201403D02*
X0064968Y0202171D01*
X0062666Y0202171D01*
X0062666Y0197567D01*
X0064968Y0197567D01*
X0065735Y0198334D01*
X0065735Y0201403D01*
X0061131Y0202171D02*
X0059597Y0202171D01*
X0060364Y0202171D02*
X0060364Y0197567D01*
X0059597Y0197567D02*
X0061131Y0197567D01*
X0058062Y0197567D02*
X0054993Y0197567D01*
X0054993Y0202171D01*
X0053458Y0201403D02*
X0052691Y0202171D01*
X0051156Y0202171D01*
X0050389Y0201403D01*
X0050389Y0200636D01*
X0051156Y0199869D01*
X0052691Y0199869D01*
X0053458Y0199101D01*
X0053458Y0198334D01*
X0052691Y0197567D01*
X0051156Y0197567D01*
X0050389Y0198334D01*
X0050141Y0195749D02*
X0049373Y0195749D01*
X0048606Y0194982D01*
X0048606Y0193447D01*
X0049373Y0192680D01*
X0049373Y0191145D02*
X0048606Y0190378D01*
X0048606Y0188843D01*
X0049373Y0188076D01*
X0050141Y0188076D01*
X0050908Y0188843D01*
X0050908Y0190378D01*
X0051675Y0191145D01*
X0052443Y0191145D01*
X0053210Y0190378D01*
X0053210Y0188843D01*
X0052443Y0188076D01*
X0052443Y0186541D02*
X0048606Y0186541D01*
X0048606Y0183472D02*
X0052443Y0183472D01*
X0053210Y0184239D01*
X0053210Y0185774D01*
X0052443Y0186541D01*
X0053977Y0189611D02*
X0047839Y0189611D01*
X0050908Y0194215D02*
X0050908Y0194982D01*
X0051675Y0195749D01*
X0052443Y0195749D01*
X0053210Y0194982D01*
X0053210Y0193447D01*
X0052443Y0192680D01*
X0050908Y0194982D02*
X0050141Y0195749D01*
D12*
X0088667Y0170572D02*
X0090802Y0170572D01*
X0089734Y0170572D02*
X0089734Y0164167D01*
X0088667Y0164167D02*
X0090802Y0164167D01*
X0092964Y0165234D02*
X0094031Y0164167D01*
X0096166Y0164167D01*
X0097234Y0165234D01*
X0099409Y0164167D02*
X0103679Y0164167D01*
X0101544Y0164167D02*
X0101544Y0170572D01*
X0099409Y0168437D01*
X0097234Y0169505D02*
X0096166Y0170572D01*
X0094031Y0170572D01*
X0092964Y0169505D01*
X0092964Y0165234D01*
X0088367Y0162367D02*
X0100867Y0162367D01*
X0100869Y0162241D01*
X0100875Y0162116D01*
X0100885Y0161991D01*
X0100899Y0161866D01*
X0100916Y0161741D01*
X0100938Y0161617D01*
X0100963Y0161494D01*
X0100993Y0161372D01*
X0101026Y0161251D01*
X0101063Y0161131D01*
X0101103Y0161012D01*
X0101148Y0160895D01*
X0101196Y0160778D01*
X0101248Y0160664D01*
X0101303Y0160551D01*
X0101362Y0160440D01*
X0101424Y0160331D01*
X0101490Y0160224D01*
X0101559Y0160119D01*
X0101631Y0160016D01*
X0101706Y0159915D01*
X0101785Y0159817D01*
X0101867Y0159722D01*
X0101951Y0159629D01*
X0102039Y0159539D01*
X0102129Y0159451D01*
X0102222Y0159367D01*
X0102317Y0159285D01*
X0102415Y0159206D01*
X0102516Y0159131D01*
X0102619Y0159059D01*
X0102724Y0158990D01*
X0102831Y0158924D01*
X0102940Y0158862D01*
X0103051Y0158803D01*
X0103164Y0158748D01*
X0103278Y0158696D01*
X0103395Y0158648D01*
X0103512Y0158603D01*
X0103631Y0158563D01*
X0103751Y0158526D01*
X0103872Y0158493D01*
X0103994Y0158463D01*
X0104117Y0158438D01*
X0104241Y0158416D01*
X0104366Y0158399D01*
X0104491Y0158385D01*
X0104616Y0158375D01*
X0104741Y0158369D01*
X0104867Y0158367D01*
X0104993Y0158369D01*
X0105118Y0158375D01*
X0105243Y0158385D01*
X0105368Y0158399D01*
X0105493Y0158416D01*
X0105617Y0158438D01*
X0105740Y0158463D01*
X0105862Y0158493D01*
X0105983Y0158526D01*
X0106103Y0158563D01*
X0106222Y0158603D01*
X0106339Y0158648D01*
X0106456Y0158696D01*
X0106570Y0158748D01*
X0106683Y0158803D01*
X0106794Y0158862D01*
X0106903Y0158924D01*
X0107010Y0158990D01*
X0107115Y0159059D01*
X0107218Y0159131D01*
X0107319Y0159206D01*
X0107417Y0159285D01*
X0107512Y0159367D01*
X0107605Y0159451D01*
X0107695Y0159539D01*
X0107783Y0159629D01*
X0107867Y0159722D01*
X0107949Y0159817D01*
X0108028Y0159915D01*
X0108103Y0160016D01*
X0108175Y0160119D01*
X0108244Y0160224D01*
X0108310Y0160331D01*
X0108372Y0160440D01*
X0108431Y0160551D01*
X0108486Y0160664D01*
X0108538Y0160778D01*
X0108586Y0160895D01*
X0108631Y0161012D01*
X0108671Y0161131D01*
X0108708Y0161251D01*
X0108741Y0161372D01*
X0108771Y0161494D01*
X0108796Y0161617D01*
X0108818Y0161741D01*
X0108835Y0161866D01*
X0108849Y0161991D01*
X0108859Y0162116D01*
X0108865Y0162241D01*
X0108867Y0162367D01*
X0121367Y0162367D01*
X0121367Y0022367D01*
X0088367Y0022367D01*
X0088367Y0162367D01*
X0118367Y0167867D02*
X0119867Y0167867D01*
X0120367Y0168367D01*
X0139367Y0168367D01*
X0139867Y0167867D01*
X0141367Y0167867D01*
X0141427Y0167869D01*
X0141488Y0167874D01*
X0141547Y0167883D01*
X0141606Y0167896D01*
X0141665Y0167912D01*
X0141722Y0167932D01*
X0141777Y0167955D01*
X0141832Y0167982D01*
X0141884Y0168011D01*
X0141935Y0168044D01*
X0141984Y0168080D01*
X0142030Y0168118D01*
X0142074Y0168160D01*
X0142116Y0168204D01*
X0142154Y0168250D01*
X0142190Y0168299D01*
X0142223Y0168350D01*
X0142252Y0168402D01*
X0142279Y0168457D01*
X0142302Y0168512D01*
X0142322Y0168569D01*
X0142338Y0168628D01*
X0142351Y0168687D01*
X0142360Y0168746D01*
X0142365Y0168807D01*
X0142367Y0168867D01*
X0142367Y0175867D02*
X0142365Y0175927D01*
X0142360Y0175988D01*
X0142351Y0176047D01*
X0142338Y0176106D01*
X0142322Y0176165D01*
X0142302Y0176222D01*
X0142279Y0176277D01*
X0142252Y0176332D01*
X0142223Y0176384D01*
X0142190Y0176435D01*
X0142154Y0176484D01*
X0142116Y0176530D01*
X0142074Y0176574D01*
X0142030Y0176616D01*
X0141984Y0176654D01*
X0141935Y0176690D01*
X0141884Y0176723D01*
X0141832Y0176752D01*
X0141777Y0176779D01*
X0141722Y0176802D01*
X0141665Y0176822D01*
X0141606Y0176838D01*
X0141547Y0176851D01*
X0141488Y0176860D01*
X0141427Y0176865D01*
X0141367Y0176867D01*
X0139867Y0176867D01*
X0139367Y0176367D01*
X0120367Y0176367D01*
X0119867Y0176867D01*
X0118367Y0176867D01*
X0118307Y0176865D01*
X0118246Y0176860D01*
X0118187Y0176851D01*
X0118128Y0176838D01*
X0118069Y0176822D01*
X0118012Y0176802D01*
X0117957Y0176779D01*
X0117902Y0176752D01*
X0117850Y0176723D01*
X0117799Y0176690D01*
X0117750Y0176654D01*
X0117704Y0176616D01*
X0117660Y0176574D01*
X0117618Y0176530D01*
X0117580Y0176484D01*
X0117544Y0176435D01*
X0117511Y0176384D01*
X0117482Y0176332D01*
X0117455Y0176277D01*
X0117432Y0176222D01*
X0117412Y0176165D01*
X0117396Y0176106D01*
X0117383Y0176047D01*
X0117374Y0175988D01*
X0117369Y0175927D01*
X0117367Y0175867D01*
X0117367Y0168867D02*
X0117369Y0168807D01*
X0117374Y0168746D01*
X0117383Y0168687D01*
X0117396Y0168628D01*
X0117412Y0168569D01*
X0117432Y0168512D01*
X0117455Y0168457D01*
X0117482Y0168402D01*
X0117511Y0168350D01*
X0117544Y0168299D01*
X0117580Y0168250D01*
X0117618Y0168204D01*
X0117660Y0168160D01*
X0117704Y0168118D01*
X0117750Y0168080D01*
X0117799Y0168044D01*
X0117850Y0168011D01*
X0117902Y0167982D01*
X0117957Y0167955D01*
X0118012Y0167932D01*
X0118069Y0167912D01*
X0118128Y0167896D01*
X0118187Y0167883D01*
X0118246Y0167874D01*
X0118307Y0167869D01*
X0118367Y0167867D01*
X0139867Y0193367D02*
X0140021Y0193365D01*
X0140175Y0193359D01*
X0140329Y0193349D01*
X0140483Y0193335D01*
X0140636Y0193318D01*
X0140788Y0193296D01*
X0140940Y0193270D01*
X0141092Y0193241D01*
X0141242Y0193207D01*
X0141392Y0193170D01*
X0141540Y0193129D01*
X0141688Y0193084D01*
X0141834Y0193035D01*
X0141979Y0192983D01*
X0142122Y0192927D01*
X0142265Y0192867D01*
X0142405Y0192804D01*
X0142544Y0192737D01*
X0142681Y0192666D01*
X0142816Y0192592D01*
X0142949Y0192515D01*
X0143081Y0192434D01*
X0143210Y0192350D01*
X0143337Y0192262D01*
X0143461Y0192171D01*
X0143583Y0192078D01*
X0143703Y0191980D01*
X0143820Y0191880D01*
X0143935Y0191777D01*
X0144047Y0191671D01*
X0144156Y0191563D01*
X0144262Y0191451D01*
X0144366Y0191337D01*
X0144466Y0191220D01*
X0144564Y0191101D01*
X0144658Y0190979D01*
X0144749Y0190854D01*
X0139867Y0181367D02*
X0139715Y0181369D01*
X0139564Y0181375D01*
X0139413Y0181384D01*
X0139261Y0181398D01*
X0139111Y0181415D01*
X0138961Y0181436D01*
X0138811Y0181461D01*
X0138662Y0181489D01*
X0138514Y0181522D01*
X0138367Y0181558D01*
X0138220Y0181597D01*
X0138075Y0181641D01*
X0137931Y0181688D01*
X0137788Y0181739D01*
X0137647Y0181793D01*
X0137506Y0181851D01*
X0137368Y0181912D01*
X0137231Y0181977D01*
X0137095Y0182046D01*
X0136962Y0182117D01*
X0136830Y0182192D01*
X0136700Y0182271D01*
X0136573Y0182352D01*
X0136447Y0182437D01*
X0136323Y0182525D01*
X0136202Y0182616D01*
X0136083Y0182710D01*
X0135967Y0182808D01*
X0135853Y0182908D01*
X0135741Y0183010D01*
X0135633Y0183116D01*
X0135527Y0183224D01*
X0135423Y0183335D01*
X0135323Y0183449D01*
X0135225Y0183565D01*
X0135131Y0183684D01*
X0139867Y0181367D02*
X0140019Y0181369D01*
X0140170Y0181375D01*
X0140321Y0181384D01*
X0140473Y0181398D01*
X0140623Y0181415D01*
X0140773Y0181436D01*
X0140923Y0181461D01*
X0141072Y0181489D01*
X0141220Y0181522D01*
X0141367Y0181558D01*
X0141514Y0181597D01*
X0141659Y0181641D01*
X0141803Y0181688D01*
X0141946Y0181739D01*
X0142087Y0181793D01*
X0142228Y0181851D01*
X0142366Y0181912D01*
X0142503Y0181977D01*
X0142639Y0182046D01*
X0142772Y0182117D01*
X0142904Y0182192D01*
X0143034Y0182271D01*
X0143161Y0182352D01*
X0143287Y0182437D01*
X0143411Y0182525D01*
X0143532Y0182616D01*
X0143651Y0182710D01*
X0143767Y0182808D01*
X0143881Y0182908D01*
X0143993Y0183010D01*
X0144101Y0183116D01*
X0144207Y0183224D01*
X0144311Y0183335D01*
X0144411Y0183449D01*
X0144509Y0183565D01*
X0144603Y0183684D01*
X0139867Y0193367D02*
X0139717Y0193365D01*
X0139566Y0193359D01*
X0139416Y0193350D01*
X0139267Y0193337D01*
X0139117Y0193320D01*
X0138968Y0193299D01*
X0138820Y0193275D01*
X0138672Y0193247D01*
X0138525Y0193215D01*
X0138379Y0193180D01*
X0138234Y0193140D01*
X0138090Y0193098D01*
X0137947Y0193051D01*
X0137805Y0193001D01*
X0137664Y0192948D01*
X0137525Y0192891D01*
X0137387Y0192831D01*
X0137251Y0192767D01*
X0137117Y0192700D01*
X0136984Y0192629D01*
X0136853Y0192555D01*
X0136724Y0192478D01*
X0136597Y0192397D01*
X0136472Y0192314D01*
X0136349Y0192227D01*
X0136228Y0192138D01*
X0136110Y0192045D01*
X0135994Y0191949D01*
X0135880Y0191851D01*
X0135769Y0191750D01*
X0135660Y0191645D01*
X0135555Y0191539D01*
X0135451Y0191429D01*
X0135351Y0191317D01*
X0135253Y0191203D01*
X0135159Y0191086D01*
X0135067Y0190967D01*
X0165867Y0179367D02*
X0167367Y0179367D01*
X0167867Y0178867D01*
X0186867Y0178867D01*
X0187367Y0179367D01*
X0188867Y0179367D01*
X0188927Y0179365D01*
X0188988Y0179360D01*
X0189047Y0179351D01*
X0189106Y0179338D01*
X0189165Y0179322D01*
X0189222Y0179302D01*
X0189277Y0179279D01*
X0189332Y0179252D01*
X0189384Y0179223D01*
X0189435Y0179190D01*
X0189484Y0179154D01*
X0189530Y0179116D01*
X0189574Y0179074D01*
X0189616Y0179030D01*
X0189654Y0178984D01*
X0189690Y0178935D01*
X0189723Y0178884D01*
X0189752Y0178832D01*
X0189779Y0178777D01*
X0189802Y0178722D01*
X0189822Y0178665D01*
X0189838Y0178606D01*
X0189851Y0178547D01*
X0189860Y0178488D01*
X0189865Y0178427D01*
X0189867Y0178367D01*
X0189867Y0171367D02*
X0189865Y0171307D01*
X0189860Y0171246D01*
X0189851Y0171187D01*
X0189838Y0171128D01*
X0189822Y0171069D01*
X0189802Y0171012D01*
X0189779Y0170957D01*
X0189752Y0170902D01*
X0189723Y0170850D01*
X0189690Y0170799D01*
X0189654Y0170750D01*
X0189616Y0170704D01*
X0189574Y0170660D01*
X0189530Y0170618D01*
X0189484Y0170580D01*
X0189435Y0170544D01*
X0189384Y0170511D01*
X0189332Y0170482D01*
X0189277Y0170455D01*
X0189222Y0170432D01*
X0189165Y0170412D01*
X0189106Y0170396D01*
X0189047Y0170383D01*
X0188988Y0170374D01*
X0188927Y0170369D01*
X0188867Y0170367D01*
X0187367Y0170367D01*
X0186867Y0170867D01*
X0167867Y0170867D01*
X0167367Y0170367D01*
X0165867Y0170367D01*
X0165807Y0170369D01*
X0165746Y0170374D01*
X0165687Y0170383D01*
X0165628Y0170396D01*
X0165569Y0170412D01*
X0165512Y0170432D01*
X0165457Y0170455D01*
X0165402Y0170482D01*
X0165350Y0170511D01*
X0165299Y0170544D01*
X0165250Y0170580D01*
X0165204Y0170618D01*
X0165160Y0170660D01*
X0165118Y0170704D01*
X0165080Y0170750D01*
X0165044Y0170799D01*
X0165011Y0170850D01*
X0164982Y0170902D01*
X0164955Y0170957D01*
X0164932Y0171012D01*
X0164912Y0171069D01*
X0164896Y0171128D01*
X0164883Y0171187D01*
X0164874Y0171246D01*
X0164869Y0171307D01*
X0164867Y0171367D01*
X0166367Y0164867D02*
X0183367Y0164867D01*
X0183427Y0164865D01*
X0183488Y0164860D01*
X0183547Y0164851D01*
X0183606Y0164838D01*
X0183665Y0164822D01*
X0183722Y0164802D01*
X0183777Y0164779D01*
X0183832Y0164752D01*
X0183884Y0164723D01*
X0183935Y0164690D01*
X0183984Y0164654D01*
X0184030Y0164616D01*
X0184074Y0164574D01*
X0184116Y0164530D01*
X0184154Y0164484D01*
X0184190Y0164435D01*
X0184223Y0164384D01*
X0184252Y0164332D01*
X0184279Y0164277D01*
X0184302Y0164222D01*
X0184322Y0164165D01*
X0184338Y0164106D01*
X0184351Y0164047D01*
X0184360Y0163988D01*
X0184365Y0163927D01*
X0184367Y0163867D01*
X0184367Y0155867D01*
X0184365Y0155807D01*
X0184360Y0155746D01*
X0184351Y0155687D01*
X0184338Y0155628D01*
X0184322Y0155569D01*
X0184302Y0155512D01*
X0184279Y0155457D01*
X0184252Y0155402D01*
X0184223Y0155350D01*
X0184190Y0155299D01*
X0184154Y0155250D01*
X0184116Y0155204D01*
X0184074Y0155160D01*
X0184030Y0155118D01*
X0183984Y0155080D01*
X0183935Y0155044D01*
X0183884Y0155011D01*
X0183832Y0154982D01*
X0183777Y0154955D01*
X0183722Y0154932D01*
X0183665Y0154912D01*
X0183606Y0154896D01*
X0183547Y0154883D01*
X0183488Y0154874D01*
X0183427Y0154869D01*
X0183367Y0154867D01*
X0166367Y0154867D01*
X0166307Y0154869D01*
X0166246Y0154874D01*
X0166187Y0154883D01*
X0166128Y0154896D01*
X0166069Y0154912D01*
X0166012Y0154932D01*
X0165957Y0154955D01*
X0165902Y0154982D01*
X0165850Y0155011D01*
X0165799Y0155044D01*
X0165750Y0155080D01*
X0165704Y0155118D01*
X0165660Y0155160D01*
X0165618Y0155204D01*
X0165580Y0155250D01*
X0165544Y0155299D01*
X0165511Y0155350D01*
X0165482Y0155402D01*
X0165455Y0155457D01*
X0165432Y0155512D01*
X0165412Y0155569D01*
X0165396Y0155628D01*
X0165383Y0155687D01*
X0165374Y0155746D01*
X0165369Y0155807D01*
X0165367Y0155867D01*
X0165367Y0163867D01*
X0165369Y0163927D01*
X0165374Y0163988D01*
X0165383Y0164047D01*
X0165396Y0164106D01*
X0165412Y0164165D01*
X0165432Y0164222D01*
X0165455Y0164277D01*
X0165482Y0164332D01*
X0165511Y0164384D01*
X0165544Y0164435D01*
X0165580Y0164484D01*
X0165618Y0164530D01*
X0165660Y0164574D01*
X0165704Y0164616D01*
X0165750Y0164654D01*
X0165799Y0164690D01*
X0165850Y0164723D01*
X0165902Y0164752D01*
X0165957Y0164779D01*
X0166012Y0164802D01*
X0166069Y0164822D01*
X0166128Y0164838D01*
X0166187Y0164851D01*
X0166246Y0164860D01*
X0166307Y0164865D01*
X0166367Y0164867D01*
X0173367Y0159867D02*
X0173867Y0159867D01*
X0175867Y0159867D02*
X0176367Y0159867D01*
X0164867Y0178367D02*
X0164869Y0178427D01*
X0164874Y0178488D01*
X0164883Y0178547D01*
X0164896Y0178606D01*
X0164912Y0178665D01*
X0164932Y0178722D01*
X0164955Y0178777D01*
X0164982Y0178832D01*
X0165011Y0178884D01*
X0165044Y0178935D01*
X0165080Y0178984D01*
X0165118Y0179030D01*
X0165160Y0179074D01*
X0165204Y0179116D01*
X0165250Y0179154D01*
X0165299Y0179190D01*
X0165350Y0179223D01*
X0165402Y0179252D01*
X0165457Y0179279D01*
X0165512Y0179302D01*
X0165569Y0179322D01*
X0165628Y0179338D01*
X0165687Y0179351D01*
X0165746Y0179360D01*
X0165807Y0179365D01*
X0165867Y0179367D01*
X0140867Y0083867D02*
X0140867Y0082367D01*
X0142367Y0082367D01*
X0140867Y0082367D02*
X0140867Y0080867D01*
X0140867Y0082367D02*
X0139367Y0082367D01*
X0136367Y0077367D02*
X0136370Y0077637D01*
X0136380Y0077907D01*
X0136397Y0078176D01*
X0136420Y0078445D01*
X0136450Y0078714D01*
X0136486Y0078981D01*
X0136529Y0079248D01*
X0136578Y0079513D01*
X0136634Y0079777D01*
X0136697Y0080040D01*
X0136765Y0080301D01*
X0136841Y0080560D01*
X0136922Y0080817D01*
X0137010Y0081073D01*
X0137104Y0081326D01*
X0137204Y0081577D01*
X0137311Y0081825D01*
X0137423Y0082070D01*
X0137542Y0082313D01*
X0137666Y0082552D01*
X0137796Y0082789D01*
X0137932Y0083022D01*
X0138074Y0083252D01*
X0138221Y0083478D01*
X0138374Y0083701D01*
X0138532Y0083920D01*
X0138695Y0084135D01*
X0138864Y0084345D01*
X0139038Y0084552D01*
X0139217Y0084754D01*
X0139400Y0084952D01*
X0139589Y0085145D01*
X0139782Y0085334D01*
X0139980Y0085517D01*
X0140182Y0085696D01*
X0140389Y0085870D01*
X0140599Y0086039D01*
X0140814Y0086202D01*
X0141033Y0086360D01*
X0141256Y0086513D01*
X0141482Y0086660D01*
X0141712Y0086802D01*
X0141945Y0086938D01*
X0142182Y0087068D01*
X0142421Y0087192D01*
X0142664Y0087311D01*
X0142909Y0087423D01*
X0143157Y0087530D01*
X0143408Y0087630D01*
X0143661Y0087724D01*
X0143917Y0087812D01*
X0144174Y0087893D01*
X0144433Y0087969D01*
X0144694Y0088037D01*
X0144957Y0088100D01*
X0145221Y0088156D01*
X0145486Y0088205D01*
X0145753Y0088248D01*
X0146020Y0088284D01*
X0146289Y0088314D01*
X0146558Y0088337D01*
X0146827Y0088354D01*
X0147097Y0088364D01*
X0147367Y0088367D01*
X0147637Y0088364D01*
X0147907Y0088354D01*
X0148176Y0088337D01*
X0148445Y0088314D01*
X0148714Y0088284D01*
X0148981Y0088248D01*
X0149248Y0088205D01*
X0149513Y0088156D01*
X0149777Y0088100D01*
X0150040Y0088037D01*
X0150301Y0087969D01*
X0150560Y0087893D01*
X0150817Y0087812D01*
X0151073Y0087724D01*
X0151326Y0087630D01*
X0151577Y0087530D01*
X0151825Y0087423D01*
X0152070Y0087311D01*
X0152313Y0087192D01*
X0152552Y0087068D01*
X0152789Y0086938D01*
X0153022Y0086802D01*
X0153252Y0086660D01*
X0153478Y0086513D01*
X0153701Y0086360D01*
X0153920Y0086202D01*
X0154135Y0086039D01*
X0154345Y0085870D01*
X0154552Y0085696D01*
X0154754Y0085517D01*
X0154952Y0085334D01*
X0155145Y0085145D01*
X0155334Y0084952D01*
X0155517Y0084754D01*
X0155696Y0084552D01*
X0155870Y0084345D01*
X0156039Y0084135D01*
X0156202Y0083920D01*
X0156360Y0083701D01*
X0156513Y0083478D01*
X0156660Y0083252D01*
X0156802Y0083022D01*
X0156938Y0082789D01*
X0157068Y0082552D01*
X0157192Y0082313D01*
X0157311Y0082070D01*
X0157423Y0081825D01*
X0157530Y0081577D01*
X0157630Y0081326D01*
X0157724Y0081073D01*
X0157812Y0080817D01*
X0157893Y0080560D01*
X0157969Y0080301D01*
X0158037Y0080040D01*
X0158100Y0079777D01*
X0158156Y0079513D01*
X0158205Y0079248D01*
X0158248Y0078981D01*
X0158284Y0078714D01*
X0158314Y0078445D01*
X0158337Y0078176D01*
X0158354Y0077907D01*
X0158364Y0077637D01*
X0158367Y0077367D01*
X0158364Y0077097D01*
X0158354Y0076827D01*
X0158337Y0076558D01*
X0158314Y0076289D01*
X0158284Y0076020D01*
X0158248Y0075753D01*
X0158205Y0075486D01*
X0158156Y0075221D01*
X0158100Y0074957D01*
X0158037Y0074694D01*
X0157969Y0074433D01*
X0157893Y0074174D01*
X0157812Y0073917D01*
X0157724Y0073661D01*
X0157630Y0073408D01*
X0157530Y0073157D01*
X0157423Y0072909D01*
X0157311Y0072664D01*
X0157192Y0072421D01*
X0157068Y0072182D01*
X0156938Y0071945D01*
X0156802Y0071712D01*
X0156660Y0071482D01*
X0156513Y0071256D01*
X0156360Y0071033D01*
X0156202Y0070814D01*
X0156039Y0070599D01*
X0155870Y0070389D01*
X0155696Y0070182D01*
X0155517Y0069980D01*
X0155334Y0069782D01*
X0155145Y0069589D01*
X0154952Y0069400D01*
X0154754Y0069217D01*
X0154552Y0069038D01*
X0154345Y0068864D01*
X0154135Y0068695D01*
X0153920Y0068532D01*
X0153701Y0068374D01*
X0153478Y0068221D01*
X0153252Y0068074D01*
X0153022Y0067932D01*
X0152789Y0067796D01*
X0152552Y0067666D01*
X0152313Y0067542D01*
X0152070Y0067423D01*
X0151825Y0067311D01*
X0151577Y0067204D01*
X0151326Y0067104D01*
X0151073Y0067010D01*
X0150817Y0066922D01*
X0150560Y0066841D01*
X0150301Y0066765D01*
X0150040Y0066697D01*
X0149777Y0066634D01*
X0149513Y0066578D01*
X0149248Y0066529D01*
X0148981Y0066486D01*
X0148714Y0066450D01*
X0148445Y0066420D01*
X0148176Y0066397D01*
X0147907Y0066380D01*
X0147637Y0066370D01*
X0147367Y0066367D01*
X0147097Y0066370D01*
X0146827Y0066380D01*
X0146558Y0066397D01*
X0146289Y0066420D01*
X0146020Y0066450D01*
X0145753Y0066486D01*
X0145486Y0066529D01*
X0145221Y0066578D01*
X0144957Y0066634D01*
X0144694Y0066697D01*
X0144433Y0066765D01*
X0144174Y0066841D01*
X0143917Y0066922D01*
X0143661Y0067010D01*
X0143408Y0067104D01*
X0143157Y0067204D01*
X0142909Y0067311D01*
X0142664Y0067423D01*
X0142421Y0067542D01*
X0142182Y0067666D01*
X0141945Y0067796D01*
X0141712Y0067932D01*
X0141482Y0068074D01*
X0141256Y0068221D01*
X0141033Y0068374D01*
X0140814Y0068532D01*
X0140599Y0068695D01*
X0140389Y0068864D01*
X0140182Y0069038D01*
X0139980Y0069217D01*
X0139782Y0069400D01*
X0139589Y0069589D01*
X0139400Y0069782D01*
X0139217Y0069980D01*
X0139038Y0070182D01*
X0138864Y0070389D01*
X0138695Y0070599D01*
X0138532Y0070814D01*
X0138374Y0071033D01*
X0138221Y0071256D01*
X0138074Y0071482D01*
X0137932Y0071712D01*
X0137796Y0071945D01*
X0137666Y0072182D01*
X0137542Y0072421D01*
X0137423Y0072664D01*
X0137311Y0072909D01*
X0137204Y0073157D01*
X0137104Y0073408D01*
X0137010Y0073661D01*
X0136922Y0073917D01*
X0136841Y0074174D01*
X0136765Y0074433D01*
X0136697Y0074694D01*
X0136634Y0074957D01*
X0136578Y0075221D01*
X0136529Y0075486D01*
X0136486Y0075753D01*
X0136450Y0076020D01*
X0136420Y0076289D01*
X0136397Y0076558D01*
X0136380Y0076827D01*
X0136370Y0077097D01*
X0136367Y0077367D01*
X0074367Y0041367D02*
X0074367Y0033367D01*
X0074365Y0033307D01*
X0074360Y0033246D01*
X0074351Y0033187D01*
X0074338Y0033128D01*
X0074322Y0033069D01*
X0074302Y0033012D01*
X0074279Y0032957D01*
X0074252Y0032902D01*
X0074223Y0032850D01*
X0074190Y0032799D01*
X0074154Y0032750D01*
X0074116Y0032704D01*
X0074074Y0032660D01*
X0074030Y0032618D01*
X0073984Y0032580D01*
X0073935Y0032544D01*
X0073884Y0032511D01*
X0073832Y0032482D01*
X0073777Y0032455D01*
X0073722Y0032432D01*
X0073665Y0032412D01*
X0073606Y0032396D01*
X0073547Y0032383D01*
X0073488Y0032374D01*
X0073427Y0032369D01*
X0073367Y0032367D01*
X0056367Y0032367D01*
X0056307Y0032369D01*
X0056246Y0032374D01*
X0056187Y0032383D01*
X0056128Y0032396D01*
X0056069Y0032412D01*
X0056012Y0032432D01*
X0055957Y0032455D01*
X0055902Y0032482D01*
X0055850Y0032511D01*
X0055799Y0032544D01*
X0055750Y0032580D01*
X0055704Y0032618D01*
X0055660Y0032660D01*
X0055618Y0032704D01*
X0055580Y0032750D01*
X0055544Y0032799D01*
X0055511Y0032850D01*
X0055482Y0032902D01*
X0055455Y0032957D01*
X0055432Y0033012D01*
X0055412Y0033069D01*
X0055396Y0033128D01*
X0055383Y0033187D01*
X0055374Y0033246D01*
X0055369Y0033307D01*
X0055367Y0033367D01*
X0055367Y0041367D01*
X0055369Y0041427D01*
X0055374Y0041488D01*
X0055383Y0041547D01*
X0055396Y0041606D01*
X0055412Y0041665D01*
X0055432Y0041722D01*
X0055455Y0041777D01*
X0055482Y0041832D01*
X0055511Y0041884D01*
X0055544Y0041935D01*
X0055580Y0041984D01*
X0055618Y0042030D01*
X0055660Y0042074D01*
X0055704Y0042116D01*
X0055750Y0042154D01*
X0055799Y0042190D01*
X0055850Y0042223D01*
X0055902Y0042252D01*
X0055957Y0042279D01*
X0056012Y0042302D01*
X0056069Y0042322D01*
X0056128Y0042338D01*
X0056187Y0042351D01*
X0056246Y0042360D01*
X0056307Y0042365D01*
X0056367Y0042367D01*
X0073367Y0042367D01*
X0073427Y0042365D01*
X0073488Y0042360D01*
X0073547Y0042351D01*
X0073606Y0042338D01*
X0073665Y0042322D01*
X0073722Y0042302D01*
X0073777Y0042279D01*
X0073832Y0042252D01*
X0073884Y0042223D01*
X0073935Y0042190D01*
X0073984Y0042154D01*
X0074030Y0042116D01*
X0074074Y0042074D01*
X0074116Y0042030D01*
X0074154Y0041984D01*
X0074190Y0041935D01*
X0074223Y0041884D01*
X0074252Y0041832D01*
X0074279Y0041777D01*
X0074302Y0041722D01*
X0074322Y0041665D01*
X0074338Y0041606D01*
X0074351Y0041547D01*
X0074360Y0041488D01*
X0074365Y0041427D01*
X0074367Y0041367D01*
X0066367Y0037367D02*
X0065867Y0037367D01*
X0063867Y0037367D02*
X0063367Y0037367D01*
X0072367Y0019367D02*
X0071867Y0018867D01*
X0052867Y0018867D01*
X0052367Y0019367D01*
X0050867Y0019367D01*
X0050807Y0019365D01*
X0050746Y0019360D01*
X0050687Y0019351D01*
X0050628Y0019338D01*
X0050569Y0019322D01*
X0050512Y0019302D01*
X0050457Y0019279D01*
X0050402Y0019252D01*
X0050350Y0019223D01*
X0050299Y0019190D01*
X0050250Y0019154D01*
X0050204Y0019116D01*
X0050160Y0019074D01*
X0050118Y0019030D01*
X0050080Y0018984D01*
X0050044Y0018935D01*
X0050011Y0018884D01*
X0049982Y0018832D01*
X0049955Y0018777D01*
X0049932Y0018722D01*
X0049912Y0018665D01*
X0049896Y0018606D01*
X0049883Y0018547D01*
X0049874Y0018488D01*
X0049869Y0018427D01*
X0049867Y0018367D01*
X0049867Y0011367D02*
X0049869Y0011307D01*
X0049874Y0011246D01*
X0049883Y0011187D01*
X0049896Y0011128D01*
X0049912Y0011069D01*
X0049932Y0011012D01*
X0049955Y0010957D01*
X0049982Y0010902D01*
X0050011Y0010850D01*
X0050044Y0010799D01*
X0050080Y0010750D01*
X0050118Y0010704D01*
X0050160Y0010660D01*
X0050204Y0010618D01*
X0050250Y0010580D01*
X0050299Y0010544D01*
X0050350Y0010511D01*
X0050402Y0010482D01*
X0050457Y0010455D01*
X0050512Y0010432D01*
X0050569Y0010412D01*
X0050628Y0010396D01*
X0050687Y0010383D01*
X0050746Y0010374D01*
X0050807Y0010369D01*
X0050867Y0010367D01*
X0052367Y0010367D01*
X0052867Y0010867D01*
X0071867Y0010867D01*
X0072367Y0010367D01*
X0073867Y0010367D01*
X0073927Y0010369D01*
X0073988Y0010374D01*
X0074047Y0010383D01*
X0074106Y0010396D01*
X0074165Y0010412D01*
X0074222Y0010432D01*
X0074277Y0010455D01*
X0074332Y0010482D01*
X0074384Y0010511D01*
X0074435Y0010544D01*
X0074484Y0010580D01*
X0074530Y0010618D01*
X0074574Y0010660D01*
X0074616Y0010704D01*
X0074654Y0010750D01*
X0074690Y0010799D01*
X0074723Y0010850D01*
X0074752Y0010902D01*
X0074779Y0010957D01*
X0074802Y0011012D01*
X0074822Y0011069D01*
X0074838Y0011128D01*
X0074851Y0011187D01*
X0074860Y0011246D01*
X0074865Y0011307D01*
X0074867Y0011367D01*
X0074867Y0018367D02*
X0074865Y0018427D01*
X0074860Y0018488D01*
X0074851Y0018547D01*
X0074838Y0018606D01*
X0074822Y0018665D01*
X0074802Y0018722D01*
X0074779Y0018777D01*
X0074752Y0018832D01*
X0074723Y0018884D01*
X0074690Y0018935D01*
X0074654Y0018984D01*
X0074616Y0019030D01*
X0074574Y0019074D01*
X0074530Y0019116D01*
X0074484Y0019154D01*
X0074435Y0019190D01*
X0074384Y0019223D01*
X0074332Y0019252D01*
X0074277Y0019279D01*
X0074222Y0019302D01*
X0074165Y0019322D01*
X0074106Y0019338D01*
X0074047Y0019351D01*
X0073988Y0019360D01*
X0073927Y0019365D01*
X0073867Y0019367D01*
X0072367Y0019367D01*
X0037367Y0033867D02*
X0037213Y0033869D01*
X0037059Y0033875D01*
X0036905Y0033885D01*
X0036751Y0033899D01*
X0036598Y0033916D01*
X0036446Y0033938D01*
X0036294Y0033964D01*
X0036142Y0033993D01*
X0035992Y0034027D01*
X0035842Y0034064D01*
X0035694Y0034105D01*
X0035546Y0034150D01*
X0035400Y0034199D01*
X0035255Y0034251D01*
X0035112Y0034307D01*
X0034969Y0034367D01*
X0034829Y0034430D01*
X0034690Y0034497D01*
X0034553Y0034568D01*
X0034418Y0034642D01*
X0034285Y0034719D01*
X0034153Y0034800D01*
X0034024Y0034884D01*
X0033897Y0034972D01*
X0033773Y0035063D01*
X0033651Y0035156D01*
X0033531Y0035254D01*
X0033414Y0035354D01*
X0033299Y0035457D01*
X0033187Y0035563D01*
X0033078Y0035671D01*
X0032972Y0035783D01*
X0032868Y0035897D01*
X0032768Y0036014D01*
X0032670Y0036133D01*
X0032576Y0036255D01*
X0032485Y0036380D01*
X0037367Y0045867D02*
X0037519Y0045865D01*
X0037670Y0045859D01*
X0037821Y0045850D01*
X0037973Y0045836D01*
X0038123Y0045819D01*
X0038273Y0045798D01*
X0038423Y0045773D01*
X0038572Y0045745D01*
X0038720Y0045712D01*
X0038867Y0045676D01*
X0039014Y0045637D01*
X0039159Y0045593D01*
X0039303Y0045546D01*
X0039446Y0045495D01*
X0039587Y0045441D01*
X0039728Y0045383D01*
X0039866Y0045322D01*
X0040003Y0045257D01*
X0040139Y0045188D01*
X0040272Y0045117D01*
X0040404Y0045042D01*
X0040534Y0044963D01*
X0040661Y0044882D01*
X0040787Y0044797D01*
X0040911Y0044709D01*
X0041032Y0044618D01*
X0041151Y0044524D01*
X0041267Y0044426D01*
X0041381Y0044326D01*
X0041493Y0044224D01*
X0041601Y0044118D01*
X0041707Y0044010D01*
X0041811Y0043899D01*
X0041911Y0043785D01*
X0042009Y0043669D01*
X0042103Y0043550D01*
X0037367Y0045867D02*
X0037215Y0045865D01*
X0037064Y0045859D01*
X0036913Y0045850D01*
X0036761Y0045836D01*
X0036611Y0045819D01*
X0036461Y0045798D01*
X0036311Y0045773D01*
X0036162Y0045745D01*
X0036014Y0045712D01*
X0035867Y0045676D01*
X0035720Y0045637D01*
X0035575Y0045593D01*
X0035431Y0045546D01*
X0035288Y0045495D01*
X0035147Y0045441D01*
X0035006Y0045383D01*
X0034868Y0045322D01*
X0034731Y0045257D01*
X0034595Y0045188D01*
X0034462Y0045117D01*
X0034330Y0045042D01*
X0034200Y0044963D01*
X0034073Y0044882D01*
X0033947Y0044797D01*
X0033823Y0044709D01*
X0033702Y0044618D01*
X0033583Y0044524D01*
X0033467Y0044426D01*
X0033353Y0044326D01*
X0033241Y0044224D01*
X0033133Y0044118D01*
X0033027Y0044010D01*
X0032923Y0043899D01*
X0032823Y0043785D01*
X0032725Y0043669D01*
X0032631Y0043550D01*
X0037367Y0033867D02*
X0037517Y0033869D01*
X0037668Y0033875D01*
X0037818Y0033884D01*
X0037967Y0033897D01*
X0038117Y0033914D01*
X0038266Y0033935D01*
X0038414Y0033959D01*
X0038562Y0033987D01*
X0038709Y0034019D01*
X0038855Y0034054D01*
X0039000Y0034094D01*
X0039144Y0034136D01*
X0039287Y0034183D01*
X0039429Y0034233D01*
X0039570Y0034286D01*
X0039709Y0034343D01*
X0039847Y0034403D01*
X0039983Y0034467D01*
X0040117Y0034534D01*
X0040250Y0034605D01*
X0040381Y0034679D01*
X0040510Y0034756D01*
X0040637Y0034837D01*
X0040762Y0034920D01*
X0040885Y0035007D01*
X0041006Y0035096D01*
X0041124Y0035189D01*
X0041240Y0035285D01*
X0041354Y0035383D01*
X0041465Y0035484D01*
X0041574Y0035589D01*
X0041679Y0035695D01*
X0041783Y0035805D01*
X0041883Y0035917D01*
X0041981Y0036031D01*
X0042075Y0036148D01*
X0042167Y0036267D01*
X0024367Y0036367D02*
X0024367Y0034867D01*
X0023867Y0034367D01*
X0023867Y0015367D01*
X0024367Y0014867D01*
X0024367Y0013367D01*
X0024365Y0013307D01*
X0024360Y0013246D01*
X0024351Y0013187D01*
X0024338Y0013128D01*
X0024322Y0013069D01*
X0024302Y0013012D01*
X0024279Y0012957D01*
X0024252Y0012902D01*
X0024223Y0012850D01*
X0024190Y0012799D01*
X0024154Y0012750D01*
X0024116Y0012704D01*
X0024074Y0012660D01*
X0024030Y0012618D01*
X0023984Y0012580D01*
X0023935Y0012544D01*
X0023884Y0012511D01*
X0023832Y0012482D01*
X0023777Y0012455D01*
X0023722Y0012432D01*
X0023665Y0012412D01*
X0023606Y0012396D01*
X0023547Y0012383D01*
X0023488Y0012374D01*
X0023427Y0012369D01*
X0023367Y0012367D01*
X0016367Y0012367D02*
X0016307Y0012369D01*
X0016246Y0012374D01*
X0016187Y0012383D01*
X0016128Y0012396D01*
X0016069Y0012412D01*
X0016012Y0012432D01*
X0015957Y0012455D01*
X0015902Y0012482D01*
X0015850Y0012511D01*
X0015799Y0012544D01*
X0015750Y0012580D01*
X0015704Y0012618D01*
X0015660Y0012660D01*
X0015618Y0012704D01*
X0015580Y0012750D01*
X0015544Y0012799D01*
X0015511Y0012850D01*
X0015482Y0012902D01*
X0015455Y0012957D01*
X0015432Y0013012D01*
X0015412Y0013069D01*
X0015396Y0013128D01*
X0015383Y0013187D01*
X0015374Y0013246D01*
X0015369Y0013307D01*
X0015367Y0013367D01*
X0015367Y0014867D01*
X0015867Y0015367D01*
X0015867Y0034367D01*
X0015367Y0034867D01*
X0015367Y0036367D01*
X0015369Y0036427D01*
X0015374Y0036488D01*
X0015383Y0036547D01*
X0015396Y0036606D01*
X0015412Y0036665D01*
X0015432Y0036722D01*
X0015455Y0036777D01*
X0015482Y0036832D01*
X0015511Y0036884D01*
X0015544Y0036935D01*
X0015580Y0036984D01*
X0015618Y0037030D01*
X0015660Y0037074D01*
X0015704Y0037116D01*
X0015750Y0037154D01*
X0015799Y0037190D01*
X0015850Y0037223D01*
X0015902Y0037252D01*
X0015957Y0037279D01*
X0016012Y0037302D01*
X0016069Y0037322D01*
X0016128Y0037338D01*
X0016187Y0037351D01*
X0016246Y0037360D01*
X0016307Y0037365D01*
X0016367Y0037367D01*
X0023367Y0037367D02*
X0023427Y0037365D01*
X0023488Y0037360D01*
X0023547Y0037351D01*
X0023606Y0037338D01*
X0023665Y0037322D01*
X0023722Y0037302D01*
X0023777Y0037279D01*
X0023832Y0037252D01*
X0023884Y0037223D01*
X0023935Y0037190D01*
X0023984Y0037154D01*
X0024030Y0037116D01*
X0024074Y0037074D01*
X0024116Y0037030D01*
X0024154Y0036984D01*
X0024190Y0036935D01*
X0024223Y0036884D01*
X0024252Y0036832D01*
X0024279Y0036777D01*
X0024302Y0036722D01*
X0024322Y0036665D01*
X0024338Y0036606D01*
X0024351Y0036547D01*
X0024360Y0036488D01*
X0024365Y0036427D01*
X0024367Y0036367D01*
D13*
X0023911Y0037370D02*
X0023161Y0038120D01*
X0020909Y0038120D01*
X0020909Y0033617D01*
X0023161Y0033617D01*
X0023911Y0034367D01*
X0023911Y0037370D01*
X0025513Y0036619D02*
X0027014Y0038120D01*
X0027014Y0033617D01*
X0025513Y0033617D02*
X0028515Y0033617D01*
X0019307Y0033617D02*
X0016305Y0033617D01*
X0016305Y0038120D01*
X0019307Y0038120D01*
X0017806Y0035869D02*
X0016305Y0035869D01*
X0014703Y0033617D02*
X0011701Y0033617D01*
X0011701Y0038120D01*
X0011114Y0022723D02*
X0010363Y0022723D01*
X0009613Y0021973D01*
X0009613Y0020471D01*
X0010363Y0019721D01*
X0010363Y0018119D02*
X0011865Y0018119D01*
X0012615Y0017369D01*
X0012615Y0015117D01*
X0012615Y0016618D02*
X0014117Y0018119D01*
X0014117Y0019721D02*
X0011114Y0022723D01*
X0014117Y0022723D02*
X0014117Y0019721D01*
X0010363Y0018119D02*
X0009613Y0017369D01*
X0009613Y0015117D01*
X0014117Y0015117D01*
X0006666Y0062317D02*
X0007417Y0063067D01*
X0007417Y0063818D01*
X0006666Y0064569D01*
X0002913Y0064569D01*
X0002913Y0065319D02*
X0002913Y0063818D01*
X0003663Y0066921D02*
X0002913Y0067671D01*
X0002913Y0069173D01*
X0003663Y0069923D01*
X0004414Y0069923D01*
X0007417Y0066921D01*
X0007417Y0069923D01*
X0064909Y0030370D02*
X0064909Y0027367D01*
X0065659Y0026617D01*
X0067161Y0026617D01*
X0067911Y0027367D01*
X0069513Y0027367D02*
X0070263Y0026617D01*
X0071765Y0026617D01*
X0072515Y0027367D01*
X0072515Y0028118D01*
X0071765Y0028869D01*
X0071014Y0028869D01*
X0071765Y0028869D02*
X0072515Y0029619D01*
X0072515Y0030370D01*
X0071765Y0031120D01*
X0070263Y0031120D01*
X0069513Y0030370D01*
X0067911Y0030370D02*
X0067161Y0031120D01*
X0065659Y0031120D01*
X0064909Y0030370D01*
X0065661Y0009120D02*
X0063409Y0009120D01*
X0063409Y0004617D01*
X0063409Y0006118D02*
X0065661Y0006118D01*
X0066411Y0006869D01*
X0066411Y0008370D01*
X0065661Y0009120D01*
X0068013Y0008370D02*
X0068763Y0009120D01*
X0070265Y0009120D01*
X0071015Y0008370D01*
X0071015Y0007619D01*
X0070265Y0006869D01*
X0071015Y0006118D01*
X0071015Y0005367D01*
X0070265Y0004617D01*
X0068763Y0004617D01*
X0068013Y0005367D01*
X0066411Y0004617D02*
X0064910Y0006118D01*
X0069514Y0006869D02*
X0070265Y0006869D01*
X0104105Y0007420D02*
X0104105Y0003667D01*
X0104855Y0002917D01*
X0106357Y0002917D01*
X0107107Y0003667D01*
X0107107Y0007420D01*
X0108709Y0006670D02*
X0108709Y0005919D01*
X0109459Y0005169D01*
X0110961Y0005169D01*
X0111711Y0004418D01*
X0111711Y0003667D01*
X0110961Y0002917D01*
X0109459Y0002917D01*
X0108709Y0003667D01*
X0110210Y0002166D02*
X0110210Y0008171D01*
X0109459Y0007420D02*
X0110961Y0007420D01*
X0111711Y0006670D01*
X0113313Y0006670D02*
X0114063Y0007420D01*
X0115565Y0007420D01*
X0116315Y0006670D01*
X0116315Y0005919D01*
X0113313Y0002917D01*
X0116315Y0002917D01*
X0109459Y0007420D02*
X0108709Y0006670D01*
X0078566Y0074105D02*
X0074813Y0074105D01*
X0074813Y0077107D02*
X0078566Y0077107D01*
X0079317Y0076357D01*
X0079317Y0074855D01*
X0078566Y0074105D01*
X0078566Y0078709D02*
X0079317Y0079459D01*
X0079317Y0080961D01*
X0078566Y0081711D01*
X0077815Y0081711D01*
X0077065Y0080961D01*
X0077065Y0079459D01*
X0076314Y0078709D01*
X0075563Y0078709D01*
X0074813Y0079459D01*
X0074813Y0080961D01*
X0075563Y0081711D01*
X0074062Y0080210D02*
X0080067Y0080210D01*
X0077065Y0083313D02*
X0077065Y0086315D01*
X0079317Y0085565D02*
X0074813Y0085565D01*
X0077065Y0083313D01*
X0158117Y0084367D02*
X0158867Y0083617D01*
X0160369Y0083617D01*
X0161119Y0084367D01*
X0162721Y0083617D02*
X0165723Y0083617D01*
X0164222Y0083617D02*
X0164222Y0088120D01*
X0162721Y0086619D01*
X0161119Y0087370D02*
X0160369Y0088120D01*
X0158867Y0088120D01*
X0158117Y0087370D01*
X0158117Y0084367D01*
X0209813Y0135210D02*
X0209813Y0136711D01*
X0209813Y0135961D02*
X0213566Y0135961D01*
X0214317Y0135210D01*
X0214317Y0134459D01*
X0213566Y0133709D01*
X0213566Y0138313D02*
X0214317Y0139063D01*
X0214317Y0140565D01*
X0213566Y0141315D01*
X0212815Y0141315D01*
X0212065Y0140565D01*
X0212065Y0139814D01*
X0212065Y0140565D02*
X0211314Y0141315D01*
X0210563Y0141315D01*
X0209813Y0140565D01*
X0209813Y0139063D01*
X0210563Y0138313D01*
X0172973Y0166117D02*
X0172973Y0170620D01*
X0170721Y0168369D01*
X0173723Y0168369D01*
X0169119Y0169870D02*
X0168369Y0170620D01*
X0166867Y0170620D01*
X0166117Y0169870D01*
X0166117Y0166867D01*
X0166867Y0166117D01*
X0168369Y0166117D01*
X0169119Y0166867D01*
X0170619Y0180617D02*
X0169118Y0182118D01*
X0169869Y0182118D02*
X0167617Y0182118D01*
X0167617Y0180617D02*
X0167617Y0185120D01*
X0169869Y0185120D01*
X0170619Y0184370D01*
X0170619Y0182869D01*
X0169869Y0182118D01*
X0172221Y0183619D02*
X0173722Y0185120D01*
X0173722Y0180617D01*
X0172221Y0180617D02*
X0175223Y0180617D01*
X0164431Y0189117D02*
X0161428Y0189117D01*
X0164431Y0192119D01*
X0164431Y0192870D01*
X0163680Y0193620D01*
X0162179Y0193620D01*
X0161428Y0192870D01*
X0159827Y0192870D02*
X0159827Y0189867D01*
X0159076Y0189117D01*
X0156825Y0189117D01*
X0156825Y0193620D01*
X0159076Y0193620D01*
X0159827Y0192870D01*
X0162317Y0195567D02*
X0163067Y0194817D01*
X0164569Y0194817D01*
X0165319Y0195567D01*
X0165319Y0199320D01*
X0166921Y0198570D02*
X0167671Y0199320D01*
X0169173Y0199320D01*
X0169923Y0198570D01*
X0169173Y0197069D02*
X0167671Y0197069D01*
X0166921Y0197819D01*
X0166921Y0198570D01*
X0168422Y0200071D02*
X0168422Y0194066D01*
X0169173Y0194817D02*
X0169923Y0195567D01*
X0169923Y0196318D01*
X0169173Y0197069D01*
X0169173Y0194817D02*
X0167671Y0194817D01*
X0166921Y0195567D01*
X0162317Y0195567D02*
X0162317Y0199320D01*
X0155223Y0193620D02*
X0152221Y0193620D01*
X0152221Y0189117D01*
X0155223Y0189117D01*
X0155388Y0187120D02*
X0153887Y0187120D01*
X0153136Y0186370D01*
X0153136Y0183367D01*
X0156139Y0186370D01*
X0156139Y0183367D01*
X0155388Y0182617D01*
X0153887Y0182617D01*
X0153136Y0183367D01*
X0151535Y0186370D02*
X0148532Y0183367D01*
X0148532Y0182617D01*
X0146931Y0182617D02*
X0143928Y0182617D01*
X0145430Y0182617D02*
X0145430Y0187120D01*
X0143928Y0185619D01*
X0142327Y0184869D02*
X0141576Y0184118D01*
X0139325Y0184118D01*
X0139325Y0182617D02*
X0139325Y0187120D01*
X0141576Y0187120D01*
X0142327Y0186370D01*
X0142327Y0184869D01*
X0137723Y0186370D02*
X0136973Y0187120D01*
X0135471Y0187120D01*
X0134721Y0186370D01*
X0134721Y0183367D01*
X0135471Y0182617D01*
X0136973Y0182617D01*
X0137723Y0183367D01*
X0133119Y0182617D02*
X0133119Y0187120D01*
X0131618Y0185619D01*
X0130117Y0187120D01*
X0130117Y0182617D01*
X0126973Y0182620D02*
X0124721Y0180369D01*
X0127723Y0180369D01*
X0125613Y0180867D02*
X0109121Y0180867D01*
X0108494Y0186367D02*
X0106914Y0186367D01*
X0101315Y0182420D02*
X0099814Y0181670D01*
X0098313Y0180169D01*
X0100565Y0180169D01*
X0101315Y0179418D01*
X0101315Y0178667D01*
X0100565Y0177917D01*
X0099063Y0177917D01*
X0098313Y0178667D01*
X0098313Y0180169D01*
X0096711Y0179418D02*
X0096711Y0178667D01*
X0095961Y0177917D01*
X0094459Y0177917D01*
X0093709Y0178667D01*
X0092107Y0178667D02*
X0092107Y0182420D01*
X0093709Y0181670D02*
X0094459Y0182420D01*
X0095961Y0182420D01*
X0096711Y0181670D01*
X0095961Y0180169D02*
X0094459Y0180169D01*
X0093709Y0180919D01*
X0093709Y0181670D01*
X0095210Y0183171D02*
X0095210Y0177166D01*
X0096711Y0179418D02*
X0095961Y0180169D01*
X0092107Y0178667D02*
X0091357Y0177917D01*
X0089855Y0177917D01*
X0089105Y0178667D01*
X0089105Y0182420D01*
X0116239Y0186367D02*
X0118494Y0186367D01*
X0109121Y0180866D02*
X0108968Y0181065D01*
X0108820Y0181267D01*
X0108677Y0181472D01*
X0108539Y0181681D01*
X0108406Y0181893D01*
X0108278Y0182108D01*
X0108156Y0182326D01*
X0108038Y0182547D01*
X0107926Y0182771D01*
X0107819Y0182997D01*
X0107718Y0183226D01*
X0107622Y0183457D01*
X0107531Y0183691D01*
X0107446Y0183926D01*
X0107367Y0184164D01*
X0107294Y0184403D01*
X0107226Y0184644D01*
X0107164Y0184886D01*
X0107108Y0185130D01*
X0107057Y0185376D01*
X0107013Y0185622D01*
X0106974Y0185869D01*
X0106942Y0186117D01*
X0106915Y0186366D01*
X0120463Y0197400D02*
X0120705Y0197322D01*
X0120945Y0197238D01*
X0121183Y0197149D01*
X0121419Y0197053D01*
X0121653Y0196952D01*
X0121884Y0196846D01*
X0122112Y0196733D01*
X0122338Y0196616D01*
X0122561Y0196493D01*
X0122780Y0196364D01*
X0122997Y0196230D01*
X0123210Y0196091D01*
X0123420Y0195947D01*
X0123626Y0195798D01*
X0123828Y0195644D01*
X0124027Y0195485D01*
X0124222Y0195321D01*
X0124413Y0195152D01*
X0124599Y0194979D01*
X0124782Y0194802D01*
X0124960Y0194620D01*
X0125133Y0194434D01*
X0125302Y0194243D01*
X0125466Y0194049D01*
X0125626Y0193851D01*
X0125781Y0193649D01*
X0125930Y0193443D01*
X0126075Y0193234D01*
X0126215Y0193021D01*
X0126349Y0192805D01*
X0126478Y0192585D01*
X0126602Y0192363D01*
X0126721Y0192138D01*
X0126833Y0191910D01*
X0126941Y0191679D01*
X0127042Y0191446D01*
X0127138Y0191210D01*
X0127229Y0190972D01*
X0127313Y0190732D01*
X0127392Y0190490D01*
X0127465Y0190246D01*
X0127531Y0190000D01*
X0127592Y0189753D01*
X0127647Y0189505D01*
X0127696Y0189255D01*
X0127739Y0189004D01*
X0127775Y0188752D01*
X0127806Y0188500D01*
X0127830Y0188246D01*
X0127848Y0187993D01*
X0127860Y0187738D01*
X0127866Y0187484D01*
X0127866Y0187229D01*
X0127860Y0186975D01*
X0127847Y0186721D01*
X0127828Y0186467D01*
X0127803Y0186214D01*
X0127772Y0185961D01*
X0127735Y0185709D01*
X0127692Y0185459D01*
X0127643Y0185209D01*
X0127588Y0184960D01*
X0127526Y0184713D01*
X0127459Y0184468D01*
X0127386Y0184224D01*
X0127307Y0183982D01*
X0127222Y0183743D01*
X0127131Y0183505D01*
X0127034Y0183269D01*
X0126932Y0183036D01*
X0126824Y0182806D01*
X0126711Y0182578D01*
X0126592Y0182353D01*
X0126468Y0182131D01*
X0126339Y0181912D01*
X0126204Y0181696D01*
X0126064Y0181483D01*
X0125918Y0181274D01*
X0125768Y0181069D01*
X0125613Y0180867D01*
X0126973Y0182620D02*
X0126973Y0178117D01*
X0123119Y0178117D02*
X0121618Y0179618D01*
X0122369Y0179618D02*
X0120117Y0179618D01*
X0120117Y0178117D02*
X0120117Y0182620D01*
X0122369Y0182620D01*
X0123119Y0181870D01*
X0123119Y0180369D01*
X0122369Y0179618D01*
X0126239Y0186367D02*
X0127819Y0186367D01*
X0130867Y0190117D02*
X0130117Y0190867D01*
X0130117Y0194620D01*
X0133119Y0194620D02*
X0133119Y0190867D01*
X0132369Y0190117D01*
X0130867Y0190117D01*
X0134721Y0190867D02*
X0135471Y0190117D01*
X0136973Y0190117D01*
X0137723Y0190867D01*
X0137723Y0191618D01*
X0136973Y0192369D01*
X0135471Y0192369D01*
X0134721Y0193119D01*
X0134721Y0193870D01*
X0135471Y0194620D01*
X0136973Y0194620D01*
X0137723Y0193870D01*
X0139325Y0194620D02*
X0139325Y0192369D01*
X0140826Y0193119D01*
X0141576Y0193119D01*
X0142327Y0192369D01*
X0142327Y0190867D01*
X0141576Y0190117D01*
X0140075Y0190117D01*
X0139325Y0190867D01*
X0136222Y0189366D02*
X0136222Y0195371D01*
X0139325Y0194620D02*
X0142327Y0194620D01*
X0147617Y0193620D02*
X0147617Y0189117D01*
X0150619Y0189117D01*
X0151535Y0187120D02*
X0148532Y0187120D01*
X0151535Y0187120D02*
X0151535Y0186370D01*
X0155388Y0187120D02*
X0156139Y0186370D01*
X0157740Y0186370D02*
X0158491Y0187120D01*
X0159992Y0187120D01*
X0160743Y0186370D01*
X0160743Y0185619D01*
X0157740Y0182617D01*
X0160743Y0182617D01*
X0153722Y0191369D02*
X0152221Y0191369D01*
X0171525Y0194817D02*
X0174527Y0194817D01*
X0173026Y0194817D02*
X0173026Y0199320D01*
X0171525Y0197819D01*
X0209813Y0189814D02*
X0214317Y0189814D01*
X0214317Y0188313D02*
X0214317Y0191315D01*
X0211314Y0188313D02*
X0209813Y0189814D01*
X0209813Y0186711D02*
X0209813Y0185210D01*
X0209813Y0185961D02*
X0213566Y0185961D01*
X0214317Y0185210D01*
X0214317Y0184459D01*
X0213566Y0183709D01*
X0114271Y0197400D02*
X0114027Y0197322D01*
X0113785Y0197237D01*
X0113546Y0197147D01*
X0113308Y0197051D01*
X0113073Y0196949D01*
X0112840Y0196841D01*
X0112610Y0196728D01*
X0112383Y0196609D01*
X0112159Y0196485D01*
X0111938Y0196355D01*
X0111721Y0196220D01*
X0111506Y0196079D01*
X0111295Y0195933D01*
X0111088Y0195783D01*
X0110885Y0195627D01*
X0110685Y0195466D01*
X0110489Y0195301D01*
X0110298Y0195131D01*
X0110110Y0194956D01*
X0109927Y0194776D01*
X0109749Y0194593D01*
X0109574Y0194404D01*
X0109405Y0194212D01*
X0109240Y0194016D01*
X0109080Y0193815D01*
X0108926Y0193611D01*
X0108776Y0193403D01*
X0108631Y0193192D01*
X0108491Y0192977D01*
X0108357Y0192759D01*
X0108228Y0192537D01*
X0108105Y0192313D01*
X0107987Y0192085D01*
X0107874Y0191855D01*
X0107768Y0191622D01*
X0107667Y0191386D01*
X0107571Y0191148D01*
X0107482Y0190908D01*
X0107399Y0190666D01*
X0107321Y0190421D01*
X0107250Y0190175D01*
X0107184Y0189927D01*
X0107125Y0189678D01*
X0107071Y0189428D01*
X0107024Y0189176D01*
X0106983Y0188923D01*
X0106948Y0188669D01*
X0106919Y0188414D01*
X0106897Y0188159D01*
X0106881Y0187903D01*
X0106871Y0187647D01*
X0106867Y0187391D01*
X0106870Y0187134D01*
X0106878Y0186878D01*
X0106893Y0186622D01*
X0106915Y0186367D01*
D14*
X0132920Y0183398D02*
X0133019Y0183229D01*
X0133123Y0183063D01*
X0133230Y0182899D01*
X0133341Y0182738D01*
X0133456Y0182580D01*
X0133575Y0182425D01*
X0133698Y0182272D01*
X0133824Y0182123D01*
X0133954Y0181977D01*
X0134088Y0181834D01*
X0134225Y0181694D01*
X0134365Y0181558D01*
X0134509Y0181425D01*
X0134656Y0181296D01*
X0134806Y0181170D01*
X0134959Y0181049D01*
X0135115Y0180930D01*
X0135274Y0180816D01*
X0135435Y0180706D01*
X0135600Y0180600D01*
X0135766Y0180497D01*
X0135936Y0180399D01*
X0136107Y0180305D01*
X0136281Y0180215D01*
X0136457Y0180130D01*
X0136635Y0180048D01*
X0136815Y0179972D01*
X0136997Y0179899D01*
X0137180Y0179831D01*
X0137365Y0179768D01*
X0137552Y0179709D01*
X0137740Y0179655D01*
X0137929Y0179605D01*
X0138119Y0179560D01*
X0138311Y0179520D01*
X0138503Y0179484D01*
X0138696Y0179453D01*
X0138890Y0179427D01*
X0139085Y0179405D01*
X0139280Y0179389D01*
X0139475Y0179377D01*
X0139671Y0179369D01*
X0139866Y0179367D01*
X0132808Y0191132D02*
X0132901Y0191300D01*
X0132997Y0191466D01*
X0133097Y0191630D01*
X0133202Y0191791D01*
X0133310Y0191950D01*
X0133422Y0192106D01*
X0133538Y0192260D01*
X0133657Y0192410D01*
X0133780Y0192558D01*
X0133906Y0192703D01*
X0134036Y0192844D01*
X0134169Y0192983D01*
X0134306Y0193118D01*
X0134446Y0193250D01*
X0134588Y0193378D01*
X0134734Y0193503D01*
X0134883Y0193625D01*
X0135035Y0193743D01*
X0135189Y0193857D01*
X0135347Y0193967D01*
X0135506Y0194074D01*
X0135669Y0194177D01*
X0135834Y0194276D01*
X0136001Y0194371D01*
X0136170Y0194461D01*
X0136341Y0194548D01*
X0136515Y0194631D01*
X0136690Y0194709D01*
X0136868Y0194783D01*
X0137047Y0194853D01*
X0137227Y0194919D01*
X0137409Y0194980D01*
X0137593Y0195037D01*
X0137778Y0195089D01*
X0137964Y0195137D01*
X0138151Y0195181D01*
X0138339Y0195220D01*
X0138528Y0195254D01*
X0138718Y0195284D01*
X0138908Y0195309D01*
X0139099Y0195330D01*
X0139291Y0195346D01*
X0139483Y0195358D01*
X0139675Y0195365D01*
X0139867Y0195367D01*
X0145974Y0182199D02*
X0145847Y0182053D01*
X0145718Y0181911D01*
X0145584Y0181771D01*
X0145448Y0181635D01*
X0145308Y0181502D01*
X0145165Y0181372D01*
X0145018Y0181246D01*
X0144869Y0181124D01*
X0144717Y0181005D01*
X0144562Y0180890D01*
X0144405Y0180778D01*
X0144245Y0180671D01*
X0144082Y0180567D01*
X0143916Y0180468D01*
X0143749Y0180372D01*
X0143579Y0180280D01*
X0143407Y0180193D01*
X0143233Y0180109D01*
X0143057Y0180030D01*
X0142879Y0179956D01*
X0142699Y0179885D01*
X0142518Y0179819D01*
X0142335Y0179757D01*
X0142151Y0179700D01*
X0141965Y0179647D01*
X0141778Y0179599D01*
X0141590Y0179555D01*
X0141401Y0179516D01*
X0141211Y0179481D01*
X0141021Y0179451D01*
X0140830Y0179425D01*
X0140638Y0179404D01*
X0140445Y0179388D01*
X0140253Y0179376D01*
X0140060Y0179369D01*
X0139867Y0179367D01*
X0146013Y0192489D02*
X0145886Y0192637D01*
X0145756Y0192782D01*
X0145623Y0192923D01*
X0145486Y0193062D01*
X0145346Y0193197D01*
X0145202Y0193328D01*
X0145055Y0193456D01*
X0144906Y0193581D01*
X0144753Y0193702D01*
X0144598Y0193819D01*
X0144439Y0193932D01*
X0144278Y0194041D01*
X0144114Y0194146D01*
X0143948Y0194248D01*
X0143779Y0194345D01*
X0143609Y0194438D01*
X0143435Y0194527D01*
X0143260Y0194612D01*
X0143083Y0194692D01*
X0142904Y0194768D01*
X0142723Y0194840D01*
X0142540Y0194907D01*
X0142356Y0194970D01*
X0142170Y0195028D01*
X0141983Y0195082D01*
X0141795Y0195131D01*
X0141605Y0195176D01*
X0141415Y0195216D01*
X0141223Y0195251D01*
X0141031Y0195282D01*
X0140838Y0195308D01*
X0140644Y0195329D01*
X0140450Y0195346D01*
X0140256Y0195358D01*
X0140062Y0195365D01*
X0139867Y0195367D01*
X0173867Y0162867D02*
X0173867Y0159867D01*
X0173867Y0156867D01*
X0175867Y0156867D02*
X0175867Y0159867D01*
X0175867Y0162867D01*
X0065867Y0040367D02*
X0065867Y0037367D01*
X0065867Y0034367D01*
X0063867Y0034367D02*
X0063867Y0037367D01*
X0063867Y0040367D01*
X0044313Y0043836D02*
X0044214Y0044005D01*
X0044110Y0044171D01*
X0044003Y0044335D01*
X0043892Y0044496D01*
X0043777Y0044654D01*
X0043658Y0044809D01*
X0043535Y0044962D01*
X0043409Y0045111D01*
X0043279Y0045257D01*
X0043145Y0045400D01*
X0043008Y0045540D01*
X0042868Y0045676D01*
X0042724Y0045809D01*
X0042577Y0045938D01*
X0042427Y0046064D01*
X0042274Y0046185D01*
X0042118Y0046304D01*
X0041959Y0046418D01*
X0041798Y0046528D01*
X0041633Y0046634D01*
X0041467Y0046737D01*
X0041297Y0046835D01*
X0041126Y0046929D01*
X0040952Y0047019D01*
X0040776Y0047104D01*
X0040598Y0047186D01*
X0040418Y0047262D01*
X0040236Y0047335D01*
X0040053Y0047403D01*
X0039868Y0047466D01*
X0039681Y0047525D01*
X0039493Y0047579D01*
X0039304Y0047629D01*
X0039114Y0047674D01*
X0038922Y0047714D01*
X0038730Y0047750D01*
X0038537Y0047781D01*
X0038343Y0047807D01*
X0038148Y0047829D01*
X0037953Y0047845D01*
X0037758Y0047857D01*
X0037562Y0047865D01*
X0037367Y0047867D01*
X0044425Y0036102D02*
X0044332Y0035934D01*
X0044236Y0035768D01*
X0044136Y0035604D01*
X0044031Y0035443D01*
X0043923Y0035284D01*
X0043811Y0035128D01*
X0043695Y0034974D01*
X0043576Y0034824D01*
X0043453Y0034676D01*
X0043327Y0034531D01*
X0043197Y0034390D01*
X0043064Y0034251D01*
X0042927Y0034116D01*
X0042787Y0033984D01*
X0042645Y0033856D01*
X0042499Y0033731D01*
X0042350Y0033609D01*
X0042198Y0033491D01*
X0042044Y0033377D01*
X0041886Y0033267D01*
X0041727Y0033160D01*
X0041564Y0033057D01*
X0041399Y0032958D01*
X0041232Y0032863D01*
X0041063Y0032773D01*
X0040892Y0032686D01*
X0040718Y0032603D01*
X0040543Y0032525D01*
X0040365Y0032451D01*
X0040186Y0032381D01*
X0040006Y0032315D01*
X0039824Y0032254D01*
X0039640Y0032197D01*
X0039455Y0032145D01*
X0039269Y0032097D01*
X0039082Y0032053D01*
X0038894Y0032014D01*
X0038705Y0031980D01*
X0038515Y0031950D01*
X0038325Y0031925D01*
X0038134Y0031904D01*
X0037942Y0031888D01*
X0037750Y0031876D01*
X0037558Y0031869D01*
X0037366Y0031867D01*
X0031260Y0045035D02*
X0031387Y0045181D01*
X0031516Y0045323D01*
X0031650Y0045463D01*
X0031786Y0045599D01*
X0031926Y0045732D01*
X0032069Y0045862D01*
X0032216Y0045988D01*
X0032365Y0046110D01*
X0032517Y0046229D01*
X0032672Y0046344D01*
X0032829Y0046456D01*
X0032989Y0046563D01*
X0033152Y0046667D01*
X0033318Y0046766D01*
X0033485Y0046862D01*
X0033655Y0046954D01*
X0033827Y0047041D01*
X0034001Y0047125D01*
X0034177Y0047204D01*
X0034355Y0047278D01*
X0034535Y0047349D01*
X0034716Y0047415D01*
X0034899Y0047477D01*
X0035083Y0047534D01*
X0035269Y0047587D01*
X0035456Y0047635D01*
X0035644Y0047679D01*
X0035833Y0047718D01*
X0036023Y0047753D01*
X0036213Y0047783D01*
X0036404Y0047809D01*
X0036596Y0047830D01*
X0036789Y0047846D01*
X0036981Y0047858D01*
X0037174Y0047865D01*
X0037367Y0047867D01*
X0031221Y0034745D02*
X0031348Y0034597D01*
X0031478Y0034452D01*
X0031611Y0034311D01*
X0031748Y0034172D01*
X0031888Y0034037D01*
X0032032Y0033906D01*
X0032179Y0033778D01*
X0032328Y0033653D01*
X0032481Y0033532D01*
X0032636Y0033415D01*
X0032795Y0033302D01*
X0032956Y0033193D01*
X0033120Y0033088D01*
X0033286Y0032986D01*
X0033455Y0032889D01*
X0033625Y0032796D01*
X0033799Y0032707D01*
X0033974Y0032622D01*
X0034151Y0032542D01*
X0034330Y0032466D01*
X0034511Y0032394D01*
X0034694Y0032327D01*
X0034878Y0032264D01*
X0035064Y0032206D01*
X0035251Y0032152D01*
X0035439Y0032103D01*
X0035629Y0032058D01*
X0035819Y0032018D01*
X0036011Y0031983D01*
X0036203Y0031952D01*
X0036396Y0031926D01*
X0036590Y0031905D01*
X0036784Y0031888D01*
X0036978Y0031876D01*
X0037172Y0031869D01*
X0037367Y0031867D01*
D15*
X0064867Y0057367D02*
X0069867Y0057367D01*
X0072367Y0059867D01*
X0072367Y0064867D01*
X0069867Y0067367D01*
X0072367Y0069867D01*
X0072367Y0074867D01*
X0069867Y0077367D01*
X0072367Y0079867D01*
X0072367Y0084867D01*
X0069867Y0087367D01*
X0064867Y0087367D01*
X0062367Y0084867D01*
X0062367Y0079867D01*
X0064867Y0077367D01*
X0062367Y0074867D01*
X0062367Y0069867D01*
X0064867Y0067367D01*
X0062367Y0064867D01*
X0062367Y0059867D01*
X0064867Y0057367D01*
X0089867Y0019867D02*
X0094867Y0019867D01*
X0097367Y0017367D01*
X0099867Y0019867D01*
X0104867Y0019867D01*
X0107367Y0017367D01*
X0109867Y0019867D01*
X0114867Y0019867D01*
X0117367Y0017367D01*
X0117367Y0012367D01*
X0114867Y0009867D01*
X0109867Y0009867D01*
X0107367Y0012367D01*
X0104867Y0009867D01*
X0099867Y0009867D01*
X0097367Y0012367D01*
X0094867Y0009867D01*
X0089867Y0009867D01*
X0087367Y0012367D01*
X0087367Y0017367D01*
X0089867Y0019867D01*
X0019867Y0064867D02*
X0019867Y0069867D01*
X0017367Y0072367D01*
X0019867Y0074867D01*
X0019867Y0079867D01*
X0017367Y0082367D01*
X0019867Y0084867D01*
X0019867Y0089867D01*
X0017367Y0092367D01*
X0019867Y0094867D01*
X0019867Y0099867D01*
X0017367Y0102367D01*
X0019867Y0104867D01*
X0019867Y0109867D01*
X0017367Y0112367D01*
X0019867Y0114867D01*
X0019867Y0119867D01*
X0017367Y0122367D01*
X0019867Y0124867D01*
X0019867Y0129867D01*
X0017367Y0132367D01*
X0019867Y0134867D01*
X0019867Y0139867D01*
X0017367Y0142367D01*
X0012367Y0142367D01*
X0009867Y0139867D01*
X0009867Y0134867D01*
X0012367Y0132367D01*
X0009867Y0129867D01*
X0009867Y0124867D01*
X0012367Y0122367D01*
X0009867Y0119867D01*
X0009867Y0114867D01*
X0012367Y0112367D01*
X0009867Y0109867D01*
X0009867Y0104867D01*
X0012367Y0102367D01*
X0009867Y0099867D01*
X0009867Y0094867D01*
X0012367Y0092367D01*
X0009867Y0089867D01*
X0009867Y0084867D01*
X0012367Y0082367D01*
X0009867Y0079867D01*
X0009867Y0074867D01*
X0012367Y0072367D01*
X0009867Y0069867D01*
X0009867Y0064867D01*
X0012367Y0062367D01*
X0017367Y0062367D01*
X0019867Y0064867D01*
X0054867Y0184867D02*
X0052367Y0187367D01*
X0052367Y0192367D01*
X0054867Y0194867D01*
X0059867Y0194867D01*
X0062367Y0192367D01*
X0064867Y0194867D01*
X0069867Y0194867D01*
X0072367Y0192367D01*
X0074867Y0194867D01*
X0079867Y0194867D01*
X0082367Y0192367D01*
X0084867Y0194867D01*
X0089867Y0194867D01*
X0092367Y0192367D01*
X0094867Y0194867D01*
X0099867Y0194867D01*
X0102367Y0192367D01*
X0102367Y0187367D01*
X0099867Y0184867D01*
X0094867Y0184867D01*
X0092367Y0187367D01*
X0089867Y0184867D01*
X0084867Y0184867D01*
X0082367Y0187367D01*
X0079867Y0184867D01*
X0074867Y0184867D01*
X0072367Y0187367D01*
X0069867Y0184867D01*
X0064867Y0184867D01*
X0062367Y0187367D01*
X0059867Y0184867D01*
X0054867Y0184867D01*
X0162367Y0184867D02*
X0164867Y0182367D01*
X0169867Y0182367D01*
X0172367Y0184867D01*
X0174867Y0182367D01*
X0179867Y0182367D01*
X0182367Y0184867D01*
X0184867Y0182367D01*
X0189867Y0182367D01*
X0192367Y0184867D01*
X0192367Y0189867D01*
X0189867Y0192367D01*
X0184867Y0192367D01*
X0182367Y0189867D01*
X0179867Y0192367D01*
X0174867Y0192367D01*
X0172367Y0189867D01*
X0169867Y0192367D01*
X0164867Y0192367D01*
X0162367Y0189867D01*
X0162367Y0184867D01*
X0197367Y0184867D02*
X0197367Y0189867D01*
X0199867Y0192367D01*
X0204867Y0192367D01*
X0207367Y0189867D01*
X0207367Y0184867D01*
X0204867Y0182367D01*
X0207367Y0179867D01*
X0207367Y0174867D01*
X0204867Y0172367D01*
X0207367Y0169867D01*
X0207367Y0164867D01*
X0204867Y0162367D01*
X0207367Y0159867D01*
X0207367Y0154867D01*
X0204867Y0152367D01*
X0207367Y0149867D01*
X0207367Y0144867D01*
X0204867Y0142367D01*
X0207367Y0139867D01*
X0207367Y0134867D01*
X0204867Y0132367D01*
X0207367Y0129867D01*
X0207367Y0124867D01*
X0204867Y0122367D01*
X0207367Y0119867D01*
X0207367Y0114867D01*
X0204867Y0112367D01*
X0207367Y0109867D01*
X0207367Y0104867D01*
X0204867Y0102367D01*
X0207367Y0099867D01*
X0207367Y0094867D01*
X0204867Y0092367D01*
X0207367Y0089867D01*
X0207367Y0084867D01*
X0204867Y0082367D01*
X0207367Y0079867D01*
X0207367Y0074867D01*
X0204867Y0072367D01*
X0207367Y0069867D01*
X0207367Y0064867D01*
X0204867Y0062367D01*
X0199867Y0062367D01*
X0197367Y0064867D01*
X0197367Y0069867D01*
X0199867Y0072367D01*
X0197367Y0074867D01*
X0197367Y0079867D01*
X0199867Y0082367D01*
X0197367Y0084867D01*
X0197367Y0089867D01*
X0199867Y0092367D01*
X0197367Y0094867D01*
X0197367Y0099867D01*
X0199867Y0102367D01*
X0197367Y0104867D01*
X0197367Y0109867D01*
X0199867Y0112367D01*
X0197367Y0114867D01*
X0197367Y0119867D01*
X0199867Y0122367D01*
X0197367Y0124867D01*
X0197367Y0129867D01*
X0199867Y0132367D01*
X0197367Y0134867D01*
X0197367Y0139867D01*
X0199867Y0142367D01*
X0204867Y0142367D01*
X0199867Y0142367D01*
X0197367Y0144867D01*
X0197367Y0149867D01*
X0199867Y0152367D01*
X0197367Y0154867D01*
X0197367Y0159867D01*
X0199867Y0162367D01*
X0197367Y0164867D01*
X0197367Y0169867D01*
X0199867Y0172367D01*
X0197367Y0174867D01*
X0197367Y0179867D01*
X0199867Y0182367D01*
X0197367Y0184867D01*
M02*
